<svg width="170" height="90" viewBox="0 0 170 90" fill="none" xmlns="http://www.w3.org/2000/svg">
<g clip-path="url(#clip0_3_484)">
<path d="M109.476 66.3818C139.852 66.3818 164.476 60.3377 164.476 52.8818C164.476 45.426 139.852 39.3818 109.476 39.3818C79.1005 39.3818 54.4761 45.426 54.4761 52.8819C54.4761 60.3377 79.1005 66.3818 109.476 66.3818Z" fill="#EBEBEB"/>
<path fill-rule="evenodd" clip-rule="evenodd" d="M151.576 28.2053L65.698 34.9435L145.972 39.1601L155.982 53.4373L151.576 28.2053Z" fill="#BEB58E"/>
<path d="M155.982 53.4373L140.368 50.1147L145.972 39.1601L155.982 53.4373Z" fill="#716B44"/>
<path d="M159.202 12.8404L71.9148 33.9545L151.264 27.7282L159.202 12.8404Z" fill="#EEECDB" stroke="#BEB58E"/>
<path d="M68.6315 35.5987L133.709 62.0972L145.176 39.6187L68.6315 35.5987Z" fill="#EEECDB" stroke="#BEB58E"/>
<path d="M142.669 28.8213C138.412 24.3915 133.964 24.0501 127.297 24.581C121.935 25.0082 116.679 27.3351 114.691 31.1046L142.669 28.8213Z" fill="#FFD84E"/>
<path d="M144.987 39.0994C145.374 36.9389 145.266 35.8126 144.905 33.5112C144.65 31.8891 143.26 29.4355 142.669 28.8213L114.691 31.1046C114.331 33.1181 114.644 36.2742 115.432 37.5516L144.987 39.0994Z" fill="#C5992A"/>
<path d="M139.239 23.7755L143.923 17.4542" stroke="#FFCD4E" stroke-linecap="round"/>
<path d="M145.493 26.876L150.487 24.9268" stroke="#FFCD4E" stroke-linecap="round"/>
<path d="M109.774 26.5985L114.781 28.5138" stroke="#FFCD4E" stroke-linecap="round"/>
<path d="M120.413 22.8592L121.617 24.6416" stroke="#FFCD4E" stroke-linecap="round"/>
<path d="M130.184 20.9526L130.165 23.17" stroke="#FFCD4E" stroke-linecap="round"/>
<path d="M128.248 54.6096C127.553 54.4501 127.341 55.3772 128.035 55.5367C128.783 55.4644 128.943 54.7691 128.248 54.6096Z" fill="#E0CAEF"/>
<path d="M136.289 47.812C135.594 47.6525 135.328 48.8113 136.023 48.9708C136.771 48.8985 136.984 47.9715 136.289 47.812Z" fill="#E0CAEF"/>
<path d="M151.505 21.2813C150.779 21.3672 151.206 22.1296 151.932 22.0437C152.572 21.8053 152.231 21.1954 151.505 21.2813Z" fill="#E0CAEF"/>
<path d="M126.601 46.8708C126.37 46.8176 126.37 46.8176 126.601 46.8708C125.515 47.3534 126.514 48.3145 127.136 47.7256C127.136 47.7256 127.19 47.4938 127.421 47.5469C127.991 47.1897 126.939 46.4604 126.601 46.8708Z" fill="#E0CAEF"/>
<path d="M144.262 23.9218C144.02 23.9504 144.02 23.9504 144.262 23.9218C143.55 24.4938 145.016 24.808 145.244 24.2933C145.244 24.2933 145.159 24.1408 145.401 24.1122C145.714 23.7499 144.333 23.5882 144.262 23.9218Z" fill="#E0CAEF"/>
<path d="M118.07 41.6713C117.839 41.6182 117.839 41.6182 118.07 41.6713C116.984 42.154 117.983 43.115 118.605 42.5261C118.605 42.5261 118.659 42.2943 118.89 42.3475C119.46 41.9903 118.408 41.261 118.07 41.6713Z" fill="#E0CAEF"/>
<path d="M133.849 20.6383C133.607 20.667 133.607 20.667 133.849 20.6383C133.137 21.2103 134.603 21.5246 134.831 21.0099C134.831 21.0099 134.746 20.8574 134.988 20.8287C135.301 20.4665 133.92 20.3047 133.849 20.6383Z" fill="#E0CAEF"/>
<path d="M101.966 41.2158C101.734 41.1626 101.734 41.1626 101.966 41.2158C100.88 41.6984 101.878 42.6595 102.501 42.0705C102.501 42.0705 102.554 41.8387 102.786 41.8919C103.355 41.5347 102.304 40.8054 101.966 41.2158Z" fill="#E0CAEF"/>
<path d="M136.463 41.5708C136.231 41.5176 136.231 41.5176 136.463 41.5708C135.377 42.0534 136.375 43.0145 136.998 42.4255C136.998 42.4255 137.051 42.1937 137.283 42.2469C137.852 41.8897 136.801 41.1604 136.463 41.5708Z" fill="#E0CAEF"/>
<path d="M148.057 17.5048C147.815 17.5334 147.815 17.5334 148.057 17.5048C147.345 18.0768 148.811 18.391 149.039 17.8763C149.039 17.8763 148.954 17.7238 149.196 17.6952C149.509 17.3329 148.128 17.1712 148.057 17.5048Z" fill="#E0CAEF"/>
<path d="M114.699 47.7278C114.004 47.5683 113.791 48.4953 114.486 48.6548C115.181 48.8143 115.394 47.8873 114.699 47.7278Z" fill="#E0CAEF"/>
<path d="M89.6281 39.262C88.9334 39.1025 88.7206 40.0295 89.4153 40.189C90.11 40.3485 90.3228 39.4214 89.6281 39.262Z" fill="#E0CAEF"/>
<path d="M99.5505 29.5647C98.8246 29.6506 99.1661 30.2606 99.892 30.1747C100.618 30.0887 100.276 29.4788 99.5505 29.5647Z" fill="#E0CAEF"/>
<path d="M62.2309 80.8646C92.6066 80.8646 117.231 74.8205 117.231 67.3646C117.231 59.9088 92.6066 53.8646 62.2309 53.8646C31.8553 53.8646 7.23093 59.9088 7.23093 67.3646C7.23093 74.8205 31.8553 80.8646 62.2309 80.8646Z" fill="#EBEBEB"/>
<path fill-rule="evenodd" clip-rule="evenodd" d="M97.5352 37.2804L5.23161 61.4043L93.5661 50.3177L107.269 63.9262L97.5352 37.2804Z" fill="#BEB58E"/>
<path d="M107.269 63.9262L89.5972 63.3548L93.5661 50.3177L107.269 63.9262Z" fill="#716B44"/>
<path d="M104.859 13.377L9.97301 59.6486L97.1451 36.8654L104.859 13.377Z" fill="#EEECDB" stroke="#BEB58E"/>
<path d="M8.23503 61.5319L84.7172 77.7814L92.8647 50.9095L8.23503 61.5319Z" fill="#EEECDB" stroke="#BEB58E"/>
<path d="M45.0737 56.4083C45.7028 62.5263 53.3785 67.7941 62.7635 68.1362C77.1349 68.66 83.6767 60.0226 83.6767 51.5529L45.0737 56.4083Z" fill="#FFD84E"/>
<path d="M78.4068 67.1559L83.8001 73.9995" stroke="#FFCD4E" stroke-width="2" stroke-linecap="round"/>
<path d="M85.1486 55.8632L89.9769 56.0846" stroke="#FFCD4E" stroke-width="2" stroke-linecap="round"/>
<path d="M32.534 61.0988L41.3312 59.1006" stroke="#FFCD4E" stroke-width="2" stroke-linecap="round"/>
<path d="M61.4135 69.3888L61.2711 71.7669" stroke="#FFCD4E" stroke-width="2" stroke-linecap="round"/>
<path d="M46.8942 64.719L43.7743 67.9312" stroke="#FFCD4E" stroke-width="2" stroke-linecap="round"/>
<path d="M85.4482 40.4406C80.3764 35.8742 72.8106 37.1849 65.6468 39.0662C59.8844 40.5795 48.4779 45.9813 47.0477 50.4789L85.4482 40.4406Z" fill="#FFD84E"/>
<path d="M85.4482 51.3277C86.2601 49.4455 86.3893 43.7251 85.4482 40.4406L47.0477 50.4789C46.5993 52.4391 46.6904 54.9771 47.0474 56.1501L85.4482 51.3277Z" fill="#C5992A"/>
<path d="M81.6433 35.2392L87.2221 27.0553" stroke="#FFCD4E" stroke-width="2" stroke-linecap="round"/>
<path d="M43.3057 44.5522L47.7772 46.2079" stroke="#FFCD4E" stroke-width="2" stroke-linecap="round"/>
<path d="M55.2362 38.7245L56.3662 40.3601" stroke="#FFCD4E" stroke-width="2" stroke-linecap="round"/>
<path d="M68.4915 33.2475L68.4671 35.7033" stroke="#FFCD4E" stroke-width="2" stroke-linecap="round"/>
<path d="M96.1046 29.7459C95.3301 29.9814 95.9443 30.7291 96.7189 30.4937C97.3705 30.1086 96.8791 29.5104 96.1046 29.7459Z" fill="#E0CAEF"/>
<path d="M80.6887 28.0806C80.3349 28.1881 80.6155 28.5297 80.9693 28.4222C81.267 28.2463 81.0425 27.973 80.6887 28.0806Z" fill="#E0CAEF"/>
<path d="M85.7983 61.4341C85.0238 61.6696 85.6381 62.4174 86.4126 62.1819C87.0642 61.7969 86.5728 61.1986 85.7983 61.4341Z" fill="#E0CAEF"/>
<path d="M90.0658 34.9498C89.8076 35.0283 89.8076 35.0283 90.0658 34.9498C89.4017 35.7124 91.0611 35.7686 91.2089 35.1629C91.2089 35.1629 91.086 35.0134 91.3441 34.9349C91.6148 34.4788 90.0782 34.5722 90.0658 34.9498Z" fill="#E0CAEF"/>
<path d="M28.7444 51.9886C28.4862 52.0671 28.4862 52.0671 28.7444 51.9886C28.0803 52.7512 29.7398 52.8074 29.8875 52.2017C29.8875 52.2017 29.7646 52.0522 30.0228 51.9737C30.2934 51.5176 28.7569 51.611 28.7444 51.9886Z" fill="#E0CAEF"/>
<path d="M24.1245 60.7897C23.8616 60.777 23.8616 60.777 24.1245 60.7897C23.035 61.528 24.311 62.3807 24.8748 61.617C24.8748 61.617 24.8875 61.3539 25.1503 61.3666C25.7014 60.8659 24.4127 60.2763 24.1245 60.7897Z" fill="#E0CAEF"/>
<path d="M93.85 22.219C93.5918 22.2975 93.5918 22.2975 93.85 22.219C93.1859 22.9817 94.8453 23.0379 94.9931 22.4322C94.9931 22.4322 94.8702 22.2827 95.1283 22.2042C95.3989 21.7481 93.8624 21.8414 93.85 22.219Z" fill="#E0CAEF"/>
<path d="M34.7666 64.4465C33.9781 64.4083 33.9272 65.4605 34.7157 65.4986C35.5042 65.5368 35.5551 64.4846 34.7666 64.4465Z" fill="#E0CAEF"/>
<path d="M75.7681 30.0249C74.7832 29.9772 74.7196 31.2916 75.7046 31.3392C76.6895 31.3869 76.7531 30.0725 75.7681 30.0249Z" fill="#E0CAEF"/>
<path d="M74.4325 71.2406C73.644 71.2025 73.5931 72.2547 74.3816 72.2928C75.1701 72.331 75.221 71.2788 74.4325 71.2406Z" fill="#E0CAEF"/>
<path d="M41.0852 48.9263C40.3107 49.1618 40.8021 49.76 41.5766 49.5245C42.3511 49.289 41.8597 48.6908 41.0852 48.9263Z" fill="#E0CAEF"/>
</g>
<defs>
<clipPath id="clip0_3_484">
<rect width="170" height="90" fill="white"/>
</clipPath>
</defs>
</svg>
