<svg width="123" height="88" viewBox="0 0 123 88" fill="none" xmlns="http://www.w3.org/2000/svg">
<path d="M76.9063 36.8782C76.4758 40.7043 71.1238 46.843 72.4697 53.4791C76.4898 62.0844 70.8545 70.6801 71.95 77.8624L63.6177 79.1333C64.3291 68.5808 65.6458 49.4263 62.2153 39.5057L76.9063 36.8782Z" fill="#B51E17"/>
<path fill-rule="evenodd" clip-rule="evenodd" d="M28.4882 69.4056L32.4383 59.5847L36.1866 59.013C34.8058 62.6399 38.9123 79.42 40.9432 82.5916L32.6268 83.86C31.5314 76.6777 28.4882 69.4056 28.4882 69.4056Z" fill="#B51E17"/>
<path d="M76.9063 36.8782L62.2153 39.5057L50.4333 23.1226C52.2358 22.5098 52.836 22.2319 53.3421 21.9053L76.9063 36.8782Z" fill="#B51E17"/>
<path d="M80.1344 22.5451C80.1344 22.5451 81.8622 21.936 82.6431 22.5276C83.3186 23.0395 83.422 24.5534 83.422 24.5534C83.422 24.5534 82.1696 24.4605 81.5066 24.0651C80.8197 23.6556 80.1344 22.5451 80.1344 22.5451Z" fill="#B51E17"/>
<path d="M76.2554 19.9585C75.518 17.7998 75.0899 16.5891 73.8131 14.4422C74.0849 14.3924 74.3538 14.3472 74.6197 14.3064C75.7993 16.4327 75.9988 17.6951 76.2554 19.9585Z" fill="#B51E17"/>
<path d="M80.2295 36.1838C80.2981 34.969 80.1348 34.2504 79.7854 32.9585C80.4334 34.4305 80.7597 35.2718 81.1492 36.8283C80.8506 36.6375 80.5453 36.4233 80.2295 36.1838Z" fill="#B51E17"/>
<path d="M89.319 34.5989C89.704 35.8449 89.9476 36.5339 90.5439 37.7445C90.3474 37.7717 90.3097 37.7835 90.1218 37.8089C89.6987 36.5196 89.4311 35.8339 89.319 34.5989Z" fill="#B51E17"/>
<path fill-rule="evenodd" clip-rule="evenodd" d="M104.532 48.1464C110.36 50.7831 115.367 37.8758 115.367 37.8758C115.717 40.1718 116.255 40.6641 118.107 40.5918C117.523 41.5544 116.985 42.483 116.472 43.3688C113.374 48.7194 111.182 52.5051 105.233 52.7403C98.2986 53.0144 90.5439 37.7445 90.5439 37.7445C89.9476 36.5339 89.704 35.8449 89.319 34.5989C89.4311 35.8339 89.6987 36.5196 90.1218 37.8089C86.0107 38.3655 83.7579 38.4949 81.1492 36.8283C80.7597 35.2718 80.4334 34.4305 79.7854 32.9585C80.1348 34.2504 80.2981 34.969 80.2295 36.1838C78.4242 39.593 71.9815 38.0008 66.4651 36.9241L59.2637 30.2863C59.2637 30.2863 54.2724 24.9544 53.1946 21.9682C52.1608 19.1042 52.507 17.5249 53.3248 14.1725C54.4402 9.60016 54.8763 8.57217 58.8939 8.0996C64.8524 8.10016 68.12 9.4695 73.8131 14.4422C75.0899 16.5891 75.518 17.7998 76.2554 19.9585C75.9988 17.6951 75.7993 16.4327 74.6197 14.3064C91.8841 11.6598 96.8135 27.8116 100.157 38.765C101.619 43.5561 102.777 47.3526 104.532 48.1464ZM82.6431 22.5276C81.8622 21.936 80.1344 22.5451 80.1344 22.5451C80.1344 22.5451 80.8197 23.6556 81.5066 24.0651C82.1696 24.4605 83.422 24.5534 83.422 24.5534C83.422 24.5534 83.3186 23.0395 82.6431 22.5276Z" fill="#EE5818"/>
<path d="M11.1396 55.5034C13.4895 52.9524 14.6359 50.7455 15.7267 45.2383C16.0398 43.595 16.4886 42.046 17.0397 40.5944L17.0117 41.1412C16.8503 44.2866 16.7516 46.2099 17.1848 49.7166C17.1848 49.7166 13.1192 55.4343 12.0911 56.2363C11.9768 56.3254 11.8828 56.3988 11.8128 56.4569C9.71913 58.1947 6.53322 59.9026 6.45451 59.3865C6.42085 59.1658 6.84288 58.8904 7.52075 58.4479C8.4283 57.8555 9.79444 56.9637 11.1396 55.5034Z" fill="#B51E17"/>
<path d="M84.4585 76.2787L76.1421 77.5471C76.0767 68.5159 72.218 61.963 65.8303 55.5878C55.7071 60.2263 40.5865 62.5328 32.4251 59.588C33.6562 65.5414 30.8925 69.306 28.927 71.9833C28.685 72.3129 28.4551 72.626 28.2463 72.9247C26.0455 76.0725 25.7755 80.0204 26.6219 85.0998L16.4187 86.656C19.2118 76.4338 17.5908 55.0537 17.1848 49.7166C16.7516 46.2099 16.8503 44.2866 17.0117 41.1412L17.0397 40.5944C20.277 32.067 27.0445 26.9015 30.5797 25.7368C33.1562 24.888 35.4828 24.8795 37.9385 24.8706C39.7033 24.8642 41.5349 24.8575 43.5737 24.5385C43.8077 24.5018 44.0314 24.467 44.2456 24.4336C47.8088 23.878 49.7343 23.4409 52.2674 22.4567C56.765 29.1202 60.103 33.2528 66.2024 37.7378C67.7427 38.8705 73.4679 39.7242 76.4344 38.8849C83.2191 52.9357 82.0209 57.7602 84.4585 76.2787Z" fill="#EE5818"/>
</svg>
