<svg width="30" height="43" viewBox="0 0 30 43" fill="none" xmlns="http://www.w3.org/2000/svg">
<path d="M27.762 39.8888L27.7735 39.8263L27.7326 39.7672C26.0114 37.0851 24.5648 34.1262 22.9728 31.4204C21.3808 28.7146 19.7366 25.9175 18.0154 23.2353C17.9122 23.0701 6.18633 4.62543 6.09073 4.4659C5.81247 3.96774 5.50201 3.48824 5.16132 3.03047C5.0237 2.92193 4.8517 2.86631 4.67656 2.87371C4.50142 2.88112 4.33474 2.95105 4.20678 3.07081L4.12868 3.12106C3.85973 3.18743 3.61219 3.32138 3.40956 3.51021C3.20693 3.69904 3.05591 3.93648 2.97085 4.20002L2.9594 4.26248L2.99606 4.32083C4.48052 6.74442 17.663 27.4828 19.1471 29.8848C21.3788 33.4695 23.8249 37.059 26.0538 40.7292L26.0972 40.7974L26.1639 40.8096C26.528 40.8978 26.912 40.8469 27.2405 40.6669C27.3831 40.5879 27.5047 40.4762 27.5954 40.3409C27.6861 40.2056 27.7432 40.0506 27.762 39.8888ZM19.3313 29.7723C17.8585 27.4024 4.70787 6.67848 3.21848 4.25828C3.30703 4.04003 3.44594 3.84581 3.62387 3.69143C3.8018 3.53705 4.01373 3.4269 4.24235 3.36996L4.3303 3.31291C4.5843 3.14856 4.75979 3.06021 4.97966 3.19946C5.30738 3.64053 5.60828 4.10089 5.88074 4.57806L13.4654 16.5149L17.8118 23.3358C19.526 25.9959 21.1593 28.7728 22.7377 31.4562C22.7487 31.475 22.7597 31.4937 22.7708 31.5125C24.3594 34.2134 25.8057 37.1507 27.5201 39.8229C27.3021 40.4716 26.9471 40.6002 26.1987 40.5492C23.9826 36.9028 21.5627 33.3353 19.3313 29.7723Z" fill="url(#paint0_linear_0_1002)"/>
<path d="M19.3313 29.7723C17.8585 27.4024 4.70787 6.67848 3.21848 4.25828C3.30703 4.04003 3.44594 3.84581 3.62387 3.69143C3.8018 3.53705 4.01373 3.4269 4.24235 3.36996L4.3303 3.31291C4.5843 3.14856 4.75979 3.06021 4.97966 3.19946C5.30738 3.64053 5.60828 4.10089 5.88074 4.57806L13.4654 16.5149L17.8118 23.3358C19.526 25.9959 21.1593 28.7728 22.7377 31.4562L22.7708 31.5125C24.3594 34.2134 25.8057 37.1507 27.5201 39.8229C27.3021 40.4716 26.9471 40.6002 26.1987 40.5492C23.9826 36.9028 21.5627 33.3353 19.3313 29.7723Z" fill="url(#paint1_linear_0_1002)"/>
<path d="M22.7708 31.5125C24.3594 34.2134 25.8057 37.1507 27.5201 39.8229C27.3021 40.4716 26.9471 40.6002 26.1987 40.5492C23.9826 36.9028 21.5627 33.3353 19.3313 29.7723C17.8585 27.4024 4.70787 6.67848 3.21848 4.25828C3.30703 4.04004 3.44594 3.8458 3.62387 3.69143C3.80181 3.53705 4.01373 3.4269 4.24235 3.36996L4.3303 3.31291C4.5843 3.14856 4.75979 3.06021 4.97966 3.19946C5.30738 3.64053 5.60828 4.10089 5.88074 4.57806L13.4654 16.5149L17.8118 23.3358C19.526 25.9959 21.1593 28.7728 22.7377 31.4562M22.7708 31.5125L22.7377 31.4562M22.7708 31.5125C22.7597 31.4937 22.7487 31.475 22.7377 31.4562M27.762 39.8888L27.7735 39.8263L27.7326 39.7672C26.0114 37.0851 24.5648 34.1262 22.9728 31.4204C21.3808 28.7146 19.7366 25.9175 18.0154 23.2353C17.9122 23.0701 6.18633 4.62543 6.09072 4.4659C5.81247 3.96774 5.50201 3.48824 5.16132 3.03047C5.0237 2.92193 4.8517 2.86631 4.67656 2.87371C4.50142 2.88111 4.33474 2.95105 4.20678 3.07081L4.12868 3.12106C3.85973 3.18743 3.61219 3.32138 3.40956 3.51021C3.20693 3.69904 3.05591 3.93648 2.97085 4.20002L2.9594 4.26248L2.99605 4.32083C4.48052 6.74443 17.663 27.4828 19.1471 29.8848C21.3788 33.4695 23.8249 37.059 26.0538 40.7292L26.0972 40.7974L26.1639 40.8096C26.528 40.8978 26.912 40.8469 27.2405 40.6669C27.3831 40.5879 27.5047 40.4762 27.5954 40.3409C27.6861 40.2056 27.7432 40.0506 27.762 39.8888Z" stroke="url(#paint2_linear_0_1002)" stroke-width="4" stroke-miterlimit="10"/>
<defs>
<linearGradient id="paint0_linear_0_1002" x1="22.0678" y1="37.6509" x2="-2.63084" y2="28.2649" gradientUnits="userSpaceOnUse">
<stop stop-color="#925AED"/>
<stop offset="1" stop-color="#A473F4"/>
</linearGradient>
<linearGradient id="paint1_linear_0_1002" x1="22.0678" y1="37.6509" x2="-2.63084" y2="28.2649" gradientUnits="userSpaceOnUse">
<stop stop-color="#925AED"/>
<stop offset="1" stop-color="#A473F4"/>
</linearGradient>
<linearGradient id="paint2_linear_0_1002" x1="22.0678" y1="37.6509" x2="-2.63084" y2="28.2649" gradientUnits="userSpaceOnUse">
<stop stop-color="#925AED"/>
<stop offset="1" stop-color="#A473F4"/>
</linearGradient>
</defs>
</svg>
