<svg width="685" height="127" viewBox="0 0 685 127" fill="none" xmlns="http://www.w3.org/2000/svg">
<path d="M594.823 17.3085C595.797 16.6153 597.129 16.2075 598.615 16.2075C600.408 16.2075 602.047 16.7784 603.072 17.7163C603.994 18.6135 604.404 19.8776 604.199 21.1418C603.994 22.4468 603.175 23.5478 601.996 24.2411C601.842 24.3227 601.791 24.445 601.791 24.6081C602.15 27.7481 600.101 30.929 596.719 32.5194C595.131 33.2534 593.286 33.6612 591.34 33.6612C589.7 33.6612 587.962 33.3776 586.528 32.8475C586.528 32.8475 585.658 32.5676 585.215 32.5676C584.887 32.5676 584.525 33.1311 584.525 33.1311C581.81 37.8615 575.559 41.287 569.002 41.4909C562.136 41.6948 555.271 38.4732 552.248 33.5796C552.197 33.4981 552.054 33.4057 551.889 33.3757C551.71 33.343 551.531 33.3757 551.428 33.4573C549.225 34.9662 546.202 35.8225 543.18 35.8225C541.591 35.8225 540.106 35.5778 538.671 35.1293C534.777 33.9059 531.699 30.7637 530.982 27.4605C530.982 27.4605 530.83 27.0542 530.67 27.0026C530.509 26.9509 530.3 27.2051 530.3 27.2051C528.815 29.2033 525.453 30.2765 522.635 30.2765C522.122 30.2765 521.61 30.2357 521.098 30.1542C517.665 29.5425 515.155 26.5655 515.872 23.9556C516.436 21.9574 519.048 20.3262 521.713 20.3262C522.481 20.3262 523.147 20.4486 523.813 20.6933C523.967 20.7748 524.172 20.7748 524.326 20.6933C524.479 20.6117 524.582 20.4894 524.582 20.367C524.787 17.2678 527.092 14.3316 530.576 12.9043C532.113 12.2518 533.855 11.9256 535.648 11.9256C537.8 11.9256 539.901 12.415 541.643 13.3121C541.745 13.3937 541.95 13.3937 542.104 13.3529C542.257 13.3121 542.36 13.1898 542.411 13.0674C543.641 7.72529 548.559 2.99485 554.963 1.0782C557.115 0.425723 559.472 0.0994873 561.88 0.0994873C566.44 0.0994873 570.846 1.28209 574.33 3.44342C576.763 4.98493 578.329 7.8797 578.274 10.4797L578.274 10.4806C578.272 10.5629 578.27 10.664 578.366 10.7137C578.464 10.7646 578.565 10.7787 578.651 10.7356C581.57 9.27038 586.87 8.65155 589.956 9.64193C591.801 10.2536 593.44 11.5994 594.157 13.149C594.772 14.4132 594.721 15.7589 594.004 16.8192C593.901 17.0231 593.952 17.227 594.157 17.3493C594.362 17.4716 594.618 17.4309 594.823 17.3085Z" fill="#D4EEFB"/>
<path d="M680.097 66.843C680.526 66.5381 681.111 66.3587 681.765 66.3587C682.554 66.3587 683.275 66.6098 683.725 67.0223C684.131 67.4169 684.311 67.9729 684.221 68.5288C684.131 69.1028 683.77 69.587 683.252 69.8919C683.184 69.9278 683.162 69.9816 683.162 70.0533C683.32 71.4343 682.418 72.8332 680.931 73.5327C680.233 73.8555 679.422 74.0349 678.565 74.0349C677.844 74.0349 677.08 73.9101 676.449 73.677C676.449 73.677 676.067 73.5539 675.872 73.5539C675.727 73.5539 675.568 73.8017 675.568 73.8017C674.374 75.8822 671.625 77.3887 668.741 77.4784C665.722 77.5681 662.702 76.1512 661.373 73.999C661.35 73.9631 661.288 73.9225 661.215 73.9093C661.136 73.8949 661.057 73.9093 661.012 73.9452C660.043 74.6088 658.714 74.9854 657.385 74.9854C656.686 74.9854 656.033 74.8778 655.402 74.6805C653.689 74.1425 652.335 72.7605 652.02 71.3078C652.02 71.3078 651.953 71.1291 651.883 71.1064C651.812 71.0837 651.72 71.1955 651.72 71.1955C651.067 72.0743 649.588 72.5463 648.349 72.5463C648.124 72.5463 647.898 72.5283 647.673 72.4925C646.163 72.2234 645.059 70.9142 645.375 69.7664C645.622 68.8875 646.772 68.1701 647.943 68.1701C648.281 68.1701 648.574 68.224 648.867 68.3316C648.935 68.3674 649.025 68.3674 649.093 68.3316C649.16 68.2957 649.205 68.2419 649.205 68.1881C649.295 66.825 650.309 65.5337 651.842 64.906C652.517 64.619 653.284 64.4755 654.072 64.4755C655.019 64.4755 655.942 64.6908 656.709 65.0853C656.754 65.1212 656.844 65.1212 656.911 65.1033C656.979 65.0853 657.024 65.0315 657.047 64.9777C657.587 62.6282 659.75 60.5478 662.567 59.7049C663.513 59.4179 664.55 59.2744 665.609 59.2744C667.614 59.2744 669.552 59.7945 671.084 60.7451C672.155 61.423 672.843 62.6962 672.819 63.8397L672.819 63.8401C672.818 63.8763 672.817 63.9207 672.859 63.9426C672.903 63.9649 672.947 63.9711 672.985 63.9522C674.268 63.3078 676.6 63.0356 677.957 63.4712C678.768 63.7402 679.489 64.3321 679.805 65.0136C680.075 65.5696 680.052 66.1614 679.737 66.6277C679.692 66.7174 679.714 66.8071 679.805 66.8609C679.895 66.9147 680.007 66.8968 680.097 66.843Z" fill="#D4EEFB"/>
<path d="M33.5745 100.973C32.5538 100.241 31.1571 99.8108 29.5992 99.8108C27.719 99.8108 25.9999 100.413 24.9255 101.403C23.9585 102.35 23.5288 103.684 23.7437 105.018C23.9585 106.395 24.8181 107.557 26.0537 108.288C26.2148 108.374 26.2685 108.503 26.2685 108.675C25.8925 111.989 28.0413 115.345 31.5869 117.024C33.2522 117.798 35.1861 118.228 37.2275 118.228C38.9466 118.228 40.7688 117.929 42.273 117.37C42.273 117.37 43.1846 117.074 43.6495 117.074C43.9937 117.074 44.3723 117.669 44.3723 117.669C47.2195 122.661 53.7734 126.275 60.6496 126.491C67.8481 126.706 75.0467 123.306 78.2162 118.142C78.2699 118.056 78.4196 117.959 78.5922 117.927C78.7808 117.893 78.9683 117.927 79.0757 118.013C81.3857 119.605 84.5552 120.509 87.7247 120.509C89.39 120.509 90.9479 120.251 92.4521 119.778C96.5349 118.487 99.7625 115.171 100.515 111.685C100.515 111.685 100.673 111.257 100.842 111.202C101.01 111.148 101.229 111.416 101.229 111.416C102.787 113.524 106.312 114.657 109.267 114.657C109.804 114.657 110.341 114.614 110.878 114.528C114.477 113.882 117.11 110.741 116.358 107.987C115.767 105.878 113.027 104.157 110.234 104.157C109.428 104.157 108.729 104.286 108.031 104.544C107.87 104.63 107.655 104.63 107.494 104.544C107.333 104.458 107.225 104.329 107.225 104.2C107.01 100.93 104.593 97.8313 100.94 96.3251C99.3283 95.6366 97.5018 95.2924 95.6216 95.2924C93.3654 95.2924 91.1628 95.8088 89.3363 96.7555C89.2289 96.8415 89.014 96.8415 88.8528 96.7985C88.6917 96.7555 88.5842 96.6264 88.5305 96.4973C87.2412 90.8601 82.0841 85.8684 75.369 83.8459C73.1128 83.1574 70.6416 82.8131 68.1168 82.8131C63.3356 82.8131 58.7157 84.061 55.0627 86.3417C52.5113 87.9684 50.8691 91.023 50.9275 93.7667L50.9276 93.7676C50.9294 93.8545 50.9317 93.9611 50.8307 94.0136C50.7275 94.0672 50.6223 94.0821 50.5323 94.0366C47.4716 92.4905 41.9135 91.8375 38.678 92.8826C36.744 93.5281 35.025 94.9481 34.2729 96.5834C33.6282 97.9173 33.682 99.3374 34.434 100.456C34.5415 100.671 34.4878 100.887 34.2729 101.016C34.058 101.145 33.7894 101.102 33.5745 100.973Z" fill="#D4EEFB"/>
<path d="M5.41837 29.8302C4.9108 29.4664 4.21623 29.2524 3.44152 29.2524C2.50653 29.2524 1.65167 29.552 1.11739 30.0442C0.636536 30.5149 0.422817 31.1783 0.529675 31.8417C0.636532 32.5264 1.06397 33.1042 1.67839 33.468C1.75854 33.5108 1.78524 33.575 1.78524 33.6606C1.59824 35.3083 2.66682 36.9774 4.42995 37.812C5.25809 38.1972 6.2198 38.4112 7.23493 38.4112C8.08978 38.4112 8.99595 38.2624 9.74395 37.9842C9.74395 37.9842 10.1973 37.8373 10.4285 37.8373C10.5996 37.8373 10.7879 38.133 10.7879 38.133C12.2038 40.6153 15.4629 42.4128 18.8823 42.5198C22.462 42.6268 26.0417 40.9362 27.6178 38.3684C27.6445 38.3256 27.719 38.2771 27.8048 38.2614C27.8986 38.2442 27.9918 38.2614 28.0452 38.3042C29.1939 39.0959 30.7701 39.5453 32.3462 39.5453C33.1743 39.5453 33.9491 39.4169 34.697 39.1815C36.7273 38.5396 38.3324 36.8907 38.7064 35.1574C38.7064 35.1574 38.7853 34.9442 38.869 34.9171C38.9528 34.89 39.0617 35.0233 39.0617 35.0233C39.8364 36.0719 41.5893 36.6351 43.0586 36.6351C43.3257 36.6351 43.5929 36.6137 43.86 36.5709C45.6498 36.2499 46.9588 34.6877 46.5848 33.3182C46.291 32.2697 44.9286 31.4137 43.5394 31.4137C43.1387 31.4137 42.7914 31.4779 42.4441 31.6063C42.364 31.6491 42.2571 31.6491 42.177 31.6063C42.0969 31.5635 42.0434 31.4993 42.0434 31.4351C41.9366 29.8088 40.7344 28.268 38.9179 27.5191C38.1165 27.1767 37.2082 27.0055 36.2732 27.0055C35.1512 27.0055 34.0559 27.2623 33.1476 27.7331C33.0942 27.7759 32.9873 27.7759 32.9072 27.7545C32.8271 27.7331 32.7736 27.6689 32.7469 27.6047C32.1058 24.8014 29.5412 22.3191 26.202 21.3134C25.08 20.971 23.8511 20.7998 22.5956 20.7998C20.218 20.7998 17.9206 21.4204 16.104 22.5545C14.8353 23.3634 14.0186 24.8824 14.0477 26.2468L14.0477 26.2473C14.0486 26.2905 14.0497 26.3435 13.9996 26.3696C13.9482 26.3963 13.8959 26.4036 13.8512 26.381C12.3291 25.6122 9.5652 25.2875 7.95621 25.8072C6.99451 26.1281 6.13965 26.8343 5.76565 27.6475C5.44508 28.3108 5.47179 29.017 5.84579 29.5734C5.89922 29.6804 5.87251 29.7874 5.76565 29.8516C5.6588 29.9158 5.52523 29.8944 5.41837 29.8302Z" fill="#D4EEFB"/>
</svg>
