<svg width="370" height="72" viewBox="0 0 370 72" fill="none" xmlns="http://www.w3.org/2000/svg">
<path d="M228.571 30.8064C193.593 52.1155 160.941 52.5445 152.049 54.6756C138.643 57.8887 139.395 63.2404 96.8615 71.9528C86.7246 74.0811 65.6426 75.8764 63.3353 76.069C63.1922 76.081 63.0838 76.1115 62.9583 76.1812C60.5499 77.5183 33.151 92.6008 11.8594 98.6475L5.14646 90.964C4.65758 90.4045 4.9302 89.5246 5.64672 89.3278C57.5982 75.0605 96.6903 29.0606 228.571 30.8064Z" fill="#C29F79"/>
<path fill-rule="evenodd" clip-rule="evenodd" d="M224.128 76.9665C224.531 76.854 224.822 76.5023 224.856 76.0851L228.571 30.8064C193.593 52.1155 160.941 52.5445 152.049 54.6756C138.643 57.8887 139.395 63.2404 96.8615 71.9528L63.8211 88.4756L26.0772 102.249L81.9878 116.487C82.1572 116.53 82.3349 116.528 82.5033 116.481L224.128 76.9665Z" fill="#937D6F"/>
<path d="M11.8594 98.6475C33.151 92.6008 60.5499 77.5183 62.9583 76.1812C63.0838 76.1115 63.1922 76.081 63.3353 76.069C65.6426 75.8764 86.7246 74.0811 96.8615 71.9528L63.8211 88.4756L26.0772 102.249L11.8594 98.6475Z" fill="#711008"/>
<path d="M367.438 33.5313L356.677 78.7553C356.573 79.1948 356.186 79.5096 355.735 79.5233L207.089 84.0544C210.186 78.5546 214.639 69.93 224.905 63.6313C258.681 57.1293 281.475 58.7898 293.86 53.7354C300.373 51.0775 334.551 46.6029 367.438 33.5313Z" fill="#937D6F"/>
<path d="M113.956 82.5557C181.035 67.2621 180.768 72.8873 224.905 63.6313C193.214 74.2198 168.676 73.6282 160.403 83.2963C143.25 82.8495 128.707 83.6586 113.956 82.5557Z" fill="#5E4F4B"/>
<path d="M113.956 82.5557C97.3741 82.3564 71.2579 83.313 54.3946 84.9421C53.8555 84.9942 53.3782 84.6088 53.3094 84.0715L52.281 76.0332C107.608 69.4969 110.257 75.7804 113.839 73.3249C116.612 71.4239 138.055 65.9494 149.442 63.2016C135.87 67.9839 119.282 77.502 113.956 82.5557Z" fill="#5E4F4B"/>
<path d="M367.438 33.5313C334.551 46.6029 300.373 51.0775 293.86 53.7354C281.475 58.7898 258.681 57.1293 224.905 63.6313C180.768 72.8873 181.035 67.2621 113.956 82.5557C119.282 77.502 135.87 67.9839 149.442 63.2016C138.055 65.9494 116.612 71.4239 113.839 73.3249C110.257 75.7804 107.608 69.4969 52.281 76.0332C93.9783 56.4095 199.19 37.4206 367.438 33.5313Z" fill="#C29F79"/>
<path d="M224.905 63.6313C214.639 69.93 210.186 78.5546 207.089 84.0544C207.089 84.0544 185.529 83.9509 160.403 83.2963C168.676 73.6282 193.214 74.2198 224.905 63.6313Z" fill="#C29F79"/>
<path d="M190.31 23.4915L160.518 92.4808C160.349 92.8731 159.949 93.1144 159.522 93.0813L16.0715 81.9389C20.1432 73.5335 26.1101 60.2948 37.7441 51.6244C73.7988 45.9723 97.1863 51.8866 110.824 45.5192C117.995 42.1707 154.15 39.8368 190.31 23.4915Z" fill="#937D6F"/>
<path d="M-80.31 66.276C-8.33298 51.2219 -9.48969 60.2318 37.7441 51.6244C3.21421 64.1462 -22.1495 59.7028 -32.2421 74.0765C-49.9669 70.9169 -65.1801 70.149 -80.31 66.276Z" fill="#5E4F4B"/>
<path d="M-80.31 66.276C-97.4768 63.5967 -124.709 61.4196 -142.458 61.639C-143.023 61.646 -143.477 61.1866 -143.469 60.6216L-143.272 47.0089C-84.8553 44.3682 -83.0894 54.8519 -78.9898 51.412C-75.8158 48.7489 -52.7159 42.9946 -40.4732 40.1953C-55.2996 45.9562 -73.9955 58.9052 -80.31 66.276Z" fill="#5E4F4B"/>
<path d="M190.31 23.4915C154.15 39.8368 117.995 42.1707 110.824 45.5192C97.1863 51.8866 73.7988 45.9723 37.7441 51.6244C-9.48969 60.2318 -8.33298 51.2219 -80.31 66.276C-73.9955 58.9052 -55.2996 45.9562 -40.4732 40.1953C-52.7159 42.9946 -75.8158 48.7489 -78.9898 51.412C-83.0894 54.8519 -84.8553 44.3682 -143.272 47.0089C-96.9497 21.3783 15.1628 5.8064 190.31 23.4915Z" fill="#C29F79"/>
<path d="M37.7441 51.6244C26.1101 60.2948 20.1432 73.5335 16.0715 81.9389C16.0715 81.9389 -6.27915 78.7045 -32.2421 74.0765C-22.1495 59.7028 3.21421 64.1462 37.7441 51.6244Z" fill="#C29F79"/>
</svg>
