<svg width="167" height="191" viewBox="0 0 167 191" fill="none" xmlns="http://www.w3.org/2000/svg">
<path d="M11.08 170.558C17.1223 182.618 19.8186 186.185 24.1755 190.5H12.9408C11.6379 182.894 11.1519 178.555 11.08 170.558Z" fill="#921A10"/>
<path d="M51.033 91.9686C63.6971 84.8773 70.8396 82.5603 83.6461 81.0572C69.9823 79.5606 62.8969 82.2438 51.033 91.9686Z" fill="#921A10"/>
<path d="M29.9308 103.872C39.1758 97.7239 44.079 93.2874 52.632 84.6944C45.7731 93.0145 42.7129 96.2645 27.8266 107.829C22.5977 99.825 21.3111 97.043 24.1755 91.9686C23.3395 98.2119 24.767 100.731 29.9308 103.872Z" fill="#921A10"/>
<path d="M89.4015 73.7832C92.7833 71.5347 95.7444 69.4719 98.6185 67.3821L88.3005 77.427L87.2957 65.8497C88.0507 68.6601 88.6978 71.0913 89.4015 73.7832Z" fill="#921A10"/>
<path fill-rule="evenodd" clip-rule="evenodd" d="M10.1066 134.952C9.05 136.706 10.7462 154.46 12.0255 163.387C16.9725 175.284 21.3154 180.95 29.9308 190.5H24.1755C19.8186 186.185 17.1223 182.618 11.08 170.558C11.1519 178.555 11.6379 182.894 12.9408 190.5H6.59004C6.6431 186.114 6.74932 182.064 6.84964 178.239C7.29234 161.359 7.61981 148.874 2.75321 131.315C38.1129 98.2263 8.60685 95.1104 -14.8323 98.2508C-17.699 85.7189 -20.7305 77.5683 -26.3428 62.872L-14.8323 84.6944L-8.43755 71.4687C-8.52923 71.796 -8.61955 72.1174 -8.70837 72.4334L-8.71958 72.4733L-8.72684 72.4991C-10.7961 79.861 -12.0416 84.2921 -10.6757 91.9686H-1.7231C0.56485 87.3285 2.00517 82.5779 4.46588 74.4618L4.67163 73.7832C4.58092 74.2852 4.49162 74.7729 4.40463 75.2478L4.40204 75.262L4.40015 75.2723L4.39973 75.2745C3.18434 81.9094 2.42458 86.057 4.67163 91.9686L17.7808 94.9443C23.6199 80.5326 24.6873 71.1883 26.437 55.8715L26.4384 55.86L26.4404 55.8425L26.4473 55.7821C26.5404 54.9666 26.6355 54.1342 26.7334 53.2833V62.872L25.2216 86.6632L34.0524 74.4618L59.6464 49.7848C47.4288 64.2451 30.1448 83.3646 24.1755 91.9686C21.3111 97.043 22.5977 99.825 27.8266 107.829C42.7129 96.2645 45.7731 93.0145 52.632 84.6944L83.6461 73.7832C85.793 67.9287 85.6046 64.6004 85.2949 59.1283C85.2785 58.8394 85.2618 58.5446 85.2451 58.243L86.014 58.7294C86.6545 61.1023 86.7969 63.9926 87.2957 65.8497L88.3005 77.427L98.6185 67.3821C104.031 63.4469 109.134 59.4161 116.156 53.8701L116.899 53.2833C103.921 67.5745 96.7872 75.3679 89.4015 81.0572H83.6461C69.9823 79.5606 62.8969 82.2438 51.033 91.9686C43.066 96.5837 19.3069 119.683 10.1066 134.952Z" fill="#B51E17"/>
<path d="M27.8266 79.3512L34.0524 74.4618L25.2216 86.6632L26.7334 62.872L27.8266 79.3512Z" fill="#921A10"/>
<path d="M-20.1768 69.0096C-7.40065 62.2657 0.814413 61.869 11.7115 69.0678C0.689891 67.0149 1.98519 69.7695 -6.38511 69.8668C-14.4535 67.0632 -14.6545 70.0554 -20.1768 69.0096Z" fill="#A8711D"/>
<path d="M-11.0325 71.2662C-13.0798 71.0782 -18.112 70.6643 -20.1768 69.0096C-14.6545 70.0554 -14.4535 67.0632 -6.38511 69.8668C1.98519 69.7695 0.689891 67.0149 11.7115 69.0678C1.58054 73.8347 -0.863993 73.414 -11.0325 71.2662Z" fill="#921A10"/>
<path d="M-23.3372 74.473C-3.59902 68.437 8.09006 70.1131 21.6294 83.2333C6.60484 77.338 7.731 81.5761 -4.10087 79.4355C-14.7686 73.285 -15.8136 77.4511 -23.3372 74.473Z" fill="#21CD88"/>
<path d="M-11.0126 80.1448C-13.8526 79.3224 -20.8457 77.3691 -23.3372 74.473C-15.8136 77.4511 -14.7686 73.285 -4.10087 79.4355C7.731 81.5761 6.60484 77.338 21.6294 83.2333C6.12566 87.2004 2.78446 85.9417 -11.0126 80.1448Z" fill="#0F9961"/>
<path d="M33.6463 29.6439C33.6463 29.4668 82.0352 -5.73805 104.517 21.5982C89.9034 25.7356 83.7184 28.6402 75.3978 34.5593C95.9582 26.8885 107.42 25.5914 127.805 26.697C139.759 31.0599 155.64 38.2706 166.091 48.5129C143.122 50.6942 126.984 53.4864 114.388 55.9353C57.8407 61.5718 63.8358 45.8514 31.291 38.7662C35.7296 35.1946 39.5338 33.4753 50.3469 31.2381L33.6463 29.6439Z" fill="#21CD88"/>
<path d="M-49.0004 48.5133C-0.743591 2.33019 35.0231 -9.98444 91.7565 7.76239C40.662 12.8789 49.6891 23.3658 12.8775 34.5593C-26.0906 32.5662 -23.3789 46.0259 -49.0004 48.5133Z" fill="#21CD88"/>
<path d="M-37.9008 67.3592C-34.149 59.4429 -30.8983 55.2329 -20.9548 48.5129C-3.8231 32.567 23.9001 38.6403 42.2495 55.3319C16.065 56.9959 0.120178 73.3333 -37.9008 67.3592Z" fill="#21CD88"/>
<path d="M122.607 19.4162L111.441 21.5982C111.441 21.5982 118.41 23.268 127.805 26.697C107.42 25.5914 95.9582 26.8885 75.3978 34.5593C83.7184 28.6402 89.9034 25.7356 104.517 21.5982C82.0352 -5.73805 33.6463 29.4668 33.6463 29.6439L50.3469 31.2381C39.5338 33.4753 35.7296 35.1946 31.291 38.7662C63.8358 45.8514 57.8407 61.5718 114.388 55.9353C86.2334 61.4089 71.7262 63.9437 42.2495 55.3319C40.9383 54.9488 43.6392 55.7648 42.2495 55.3319C23.9001 38.6403 -3.8231 32.567 -20.9548 48.5129C-25.0013 42.4162 -37.9008 53.1585 -49.0004 48.5133C-23.3789 46.0259 -26.0906 32.5662 12.8775 34.5593C49.6891 23.3658 40.662 12.8789 91.7565 7.76239C101.412 10.7826 111.643 14.6735 122.607 19.4162Z" fill="#0F9961"/>
<path d="M-37.9008 67.3592C0.120178 73.3333 16.065 56.9959 42.2495 55.3319C40.9383 54.9488 43.6392 55.7648 42.2495 55.3319C42.2495 55.3319 24.2965 64.6276 8.8446 69.5809C-8.61046 75.1764 -37.9008 67.3592 -37.9008 67.3592Z" fill="#0F9961"/>
</svg>
